<svg width="24" height="24" viewBox="0 0 24 24" fill="none" xmlns="http://www.w3.org/2000/svg">
<g clip-path="url(#clip0_3_5926)">
<circle cx="12" cy="12" r="12" fill="black"/>
<path d="M11.998 17.2239C11.1429 17.2206 10.4071 17.0102 9.79064 16.5926C9.17748 16.1749 8.70518 15.5701 8.37374 14.7779C8.04562 13.9858 7.88321 13.0329 7.88652 11.9193C7.88652 10.8089 8.05059 9.86267 8.37871 9.08048C8.71015 8.29828 9.18245 7.70335 9.79562 7.29568C10.4121 6.88469 11.1462 6.6792 11.998 6.6792C12.8498 6.6792 13.5823 6.88469 14.1955 7.29568C14.812 7.70666 15.2859 8.30325 15.6173 9.08545C15.9488 9.86433 16.1129 10.8089 16.1095 11.9193C16.1095 13.0362 15.9438 13.9908 15.6124 14.7829C15.2843 15.575 14.8136 16.1799 14.2004 16.5975C13.5873 17.0151 12.8531 17.2239 11.998 17.2239ZM11.998 15.4391C12.5814 15.4391 13.047 15.1458 13.395 14.5592C13.7431 13.9725 13.9154 13.0926 13.9121 11.9193C13.9121 11.147 13.8325 10.504 13.6735 9.99028C13.5177 9.47655 13.2956 9.09042 13.0073 8.8319C12.7222 8.57338 12.3858 8.44411 11.998 8.44411C11.418 8.44411 10.954 8.73412 10.606 9.31414C10.258 9.89416 10.0823 10.7625 10.079 11.9193C10.079 12.7015 10.1569 13.3544 10.3127 13.8781C10.4718 14.3984 10.6955 14.7895 10.9838 15.0514C11.2722 15.3099 11.6102 15.4391 11.998 15.4391Z" fill="white"/>
</g>
<defs>
<clipPath id="clip0_3_5926">
<rect width="24" height="24" fill="white"/>
</clipPath>
</defs>
</svg>
