<svg width="24" height="24" viewBox="0 0 24 24" fill="none" xmlns="http://www.w3.org/2000/svg">
<path fill-rule="evenodd" clip-rule="evenodd" d="M3.38461 2.07694C3.01056 1.9211 2.57945 2.0064 2.29292 2.29292C2.0064 2.57945 1.9211 3.01056 2.07694 3.38461L9.14694 20.3546C9.30692 20.7386 9.68792 20.9835 10.1037 20.9695C10.5194 20.9555 10.8831 20.6855 11.0169 20.2916L13.0098 14.424L18.2929 19.7071C18.6834 20.0977 19.3166 20.0977 19.7071 19.7071C20.0977 19.3166 20.0977 18.6834 19.7071 18.2929L14.424 13.0098L20.2916 11.0169C20.6855 10.8831 20.9555 10.5194 20.9695 10.1037C20.9835 9.68792 20.7386 9.30692 20.3546 9.14694L3.38461 2.07694ZM9.97476 17.1411L4.85698 4.85698L17.1411 9.97476L12.2584 11.6332C11.9642 11.7331 11.7331 11.9642 11.6332 12.2584L9.97476 17.1411Z" fill="black"/>
</svg>
