<svg width="24" height="24" viewBox="0 0 24 24" fill="none" xmlns="http://www.w3.org/2000/svg">
<path fill-rule="evenodd" clip-rule="evenodd" d="M18.8824 1.61868C17.586 1.03203 16.1416 0.854411 14.7417 1.10948C13.3418 1.36454 12.0529 2.04018 11.0467 3.04635C10.0405 4.05252 9.3649 5.34144 9.10984 6.74134C8.89713 7.90879 8.98534 9.10718 9.36075 10.2249L2.91299 16.6726C2.32763 17.258 1.99878 18.0519 1.99878 18.8797C1.99878 19.7076 2.32763 20.5015 2.91299 21.0868C3.49835 21.6722 4.29227 22.0011 5.1201 22.0011C5.94793 22.0011 6.74185 21.6722 7.32721 21.0868L13.775 14.6391C14.8927 15.0145 16.091 15.1027 17.2585 14.89C18.6584 14.6349 19.9473 13.9593 20.9535 12.9531C21.9597 11.9469 22.6353 10.658 22.8904 9.25813C23.1454 7.85824 22.9678 6.41385 22.3812 5.11746C22.2458 4.81838 21.9723 4.60478 21.6493 4.54593C21.3264 4.48709 20.9951 4.5905 20.763 4.82263L17.0001 8.58552L15.4143 6.99974L19.1772 3.23684C19.4093 3.00472 19.5127 2.67344 19.4539 2.35048C19.3951 2.02753 19.1815 1.75402 18.8824 1.61868ZM15.1002 3.07708C15.5839 2.98896 16.0749 2.97314 16.5579 3.02772L13.993 5.59263L13.986 5.59974C13.6195 5.97359 13.4142 6.47623 13.4142 6.99974C13.4142 7.52324 13.6195 8.02588 13.986 8.39974L13.993 8.40684L15.593 10.0068L15.6001 10.0139C15.974 10.3803 16.4766 10.5856 17.0001 10.5856C17.5236 10.5856 18.0262 10.3803 18.4001 10.0139L18.4072 10.0068L20.9721 7.44193C21.0267 7.9249 21.0109 8.41598 20.9228 8.89963C20.7406 9.89956 20.258 10.8202 19.5393 11.5389C18.8206 12.2576 17.8999 12.7402 16.9 12.9224C15.9001 13.1046 14.8684 12.9777 13.9424 12.5587C13.5632 12.3871 13.1173 12.4683 12.823 12.7626L5.91299 19.6726C5.7027 19.8829 5.41749 20.0011 5.1201 20.0011C4.82271 20.0011 4.5375 19.8829 4.32721 19.6726C4.11692 19.4623 3.99878 19.1771 3.99878 18.8797C3.99878 18.5823 4.11692 18.2971 4.32721 18.0868L11.2372 11.1768C11.5315 10.8825 11.6128 10.4367 11.4412 10.0575C11.0221 9.13147 10.8953 8.09977 11.0774 7.09984C11.2596 6.09992 11.7422 5.17926 12.4609 4.46056C13.1796 3.74187 14.1003 3.25927 15.1002 3.07708Z" fill="black"/>
</svg>
