<svg width="24" height="24" viewBox="0 0 24 24" fill="none" xmlns="http://www.w3.org/2000/svg">
<path fill-rule="evenodd" clip-rule="evenodd" d="M12 1.00195C11.4742 1.00195 10.9577 1.14014 10.5021 1.40264L7.30633 3.22882C7.09619 3.27039 6.90017 3.37894 6.75258 3.54525L3.50386 5.40166L3.5 5.40388C3.13 5.6175 2.8109 5.90709 2.56304 6.25232C2.50271 6.31267 2.44917 6.3818 2.40441 6.45918C2.36586 6.52582 2.33586 6.59505 2.31407 6.66562C2.10834 7.07911 2.00048 7.53535 2 7.99888V16.0009C2.00054 16.527 2.13941 17.0437 2.40269 17.4992C2.66597 17.9547 3.04439 18.3329 3.5 18.5959L3.50386 18.5981L10.5 22.5959L10.5019 22.597C10.8191 22.7798 11.1658 22.9024 11.5247 22.96C11.6661 23.0365 11.828 23.0799 12 23.0799C12.172 23.0799 12.3339 23.0365 12.4753 22.96C12.8342 22.9024 13.181 22.7798 13.4982 22.597L13.5 22.5959L20.4961 18.5981L20.5 18.5959C20.9556 18.3329 21.334 17.9547 21.5973 17.4992C21.8606 17.0437 21.9995 16.527 22 16.0009V7.99888C21.9995 7.53542 21.8917 7.07926 21.686 6.66582C21.6642 6.59518 21.6342 6.52588 21.5956 6.45918C21.5508 6.38175 21.4973 6.31257 21.4369 6.25218C21.189 5.90701 20.87 5.61747 20.5 5.40387L13.5 1.40388L13.4979 1.40267C13.0424 1.14015 12.5258 1.00195 12 1.00195ZM13 20.5782L19.5 16.8639L19.5016 16.863C19.6527 16.7753 19.7783 16.6496 19.8658 16.4983C19.9535 16.3465 19.9998 16.1742 20 15.9989V8.53745L13 12.5867V20.5782ZM11 12.5867L4 8.53743V15.9993C4.00026 16.1745 4.04654 16.3466 4.13423 16.4983C4.22169 16.6496 4.34726 16.7753 4.49842 16.863L4.5 16.8639L11 20.5782V12.5867ZM12.5039 3.13815L18.961 6.82794L16.5052 8.24855L9.5609 4.24399L11.4961 3.13815L11.5 3.13593C11.652 3.04816 11.8245 3.00195 12 3.00195C12.1755 3.00195 12.348 3.04816 12.5 3.13593L12.5039 3.13815ZM12 10.8546L14.5065 9.4047L7.54999 5.39308L5.03899 6.82793L12 10.8546Z" fill="black"/>
</svg>
