<svg width="24" height="24" viewBox="0 0 24 24" fill="none" xmlns="http://www.w3.org/2000/svg">
<g clip-path="url(#clip0_3_5923)">
<circle cx="12" cy="12" r="12" fill="black"/>
<path d="M9.0809 6.8184V17.0002H6.9282V8.86173H6.86854L4.53687 10.3234V8.41428L7.05746 6.8184H9.0809Z" fill="white"/>
<path d="M15.353 17.2239C14.4979 17.2206 13.7621 17.0102 13.1456 16.5926C12.5325 16.1749 12.0602 15.5701 11.7287 14.7779C11.4006 13.9858 11.2382 13.0329 11.2415 11.9193C11.2415 10.8089 11.4056 9.86267 11.7337 9.08048C12.0651 8.29828 12.5374 7.70335 13.1506 7.29568C13.7671 6.88469 14.5012 6.6792 15.353 6.6792C16.2048 6.6792 16.9373 6.88469 17.5505 7.29568C18.1669 7.70666 18.6409 8.30325 18.9723 9.08545C19.3038 9.86433 19.4678 10.8089 19.4645 11.9193C19.4645 13.0362 19.2988 13.9908 18.9674 14.7829C18.6392 15.575 18.1686 16.1799 17.5554 16.5975C16.9423 17.0151 16.2081 17.2239 15.353 17.2239ZM15.353 15.4391C15.9363 15.4391 16.402 15.1458 16.75 14.5592C17.098 13.9725 17.2704 13.0926 17.2671 11.9193C17.2671 11.147 17.1875 10.504 17.0284 9.99028C16.8727 9.47655 16.6506 9.09042 16.3622 8.8319C16.0772 8.57338 15.7408 8.44411 15.353 8.44411C14.773 8.44411 14.309 8.73412 13.961 9.31414C13.613 9.89416 13.4373 10.7625 13.434 11.9193C13.434 12.7015 13.5119 13.3544 13.6676 13.8781C13.8267 14.3984 14.0505 14.7895 14.3388 15.0514C14.6272 15.3099 14.9652 15.4391 15.353 15.4391Z" fill="white"/>
</g>
<defs>
<clipPath id="clip0_3_5923">
<rect width="24" height="24" fill="white"/>
</clipPath>
</defs>
</svg>
