<svg width="24" height="24" viewBox="0 0 24 24" fill="none" xmlns="http://www.w3.org/2000/svg">
<path d="M19.7773 4.22318C19.3868 3.83259 18.7536 3.8325 18.363 4.22296C17.9725 4.61343 17.9724 5.24659 18.3628 5.63718C20.0501 7.32492 20.9979 9.6137 20.9979 12.0002C20.9979 14.3867 20.0501 16.6754 18.3628 18.3632C17.9724 18.7538 17.9725 19.3869 18.363 19.7774C18.7536 20.1679 19.3868 20.1678 19.7773 19.7772C21.8394 17.7144 22.9979 14.917 22.9979 12.0002C22.9979 9.08337 21.8394 6.28598 19.7773 4.22318Z" fill="black"/>
<path d="M16.2473 7.75318C15.8568 7.36259 15.2236 7.3625 14.833 7.75296C14.4425 8.14343 14.4424 8.77659 14.8328 9.16718C15.5827 9.91729 16.004 10.9345 16.004 11.9952C16.004 13.0558 15.5827 14.0731 14.8328 14.8232C14.4424 15.2138 14.4425 15.8469 14.833 16.2374C15.2236 16.6279 15.8568 16.6278 16.2473 16.2372C17.3721 15.112 18.004 13.5862 18.004 11.9952C18.004 10.4042 17.3721 8.87834 16.2473 7.75318Z" fill="black"/>
<path fill-rule="evenodd" clip-rule="evenodd" d="M12 5.00018C12 4.61578 11.7797 4.2654 11.4332 4.09888C11.0867 3.93236 10.6755 3.97918 10.3753 4.21931L5.64922 8.00018H2C1.44772 8.00018 1 8.4479 1 9.00018V15.0002C1 15.5525 1.44772 16.0002 2 16.0002H5.64922L10.3753 19.7811C10.6755 20.0212 11.0867 20.068 11.4332 19.9015C11.7797 19.735 12 19.3846 12 19.0002V5.00018ZM6.62469 9.78105L10 7.08081V16.9196L6.62469 14.2193C6.44738 14.0775 6.22707 14.0002 6 14.0002H3V10.0002H6C6.22707 10.0002 6.44738 9.9229 6.62469 9.78105Z" fill="black"/>
</svg>
