<svg width="24" height="24" viewBox="0 0 24 24" fill="none" xmlns="http://www.w3.org/2000/svg">
<g clip-path="url(#clip0_3_5924)">
<circle cx="12" cy="12" r="12" fill="black"/>
<path d="M11.9955 17.1394C11.2299 17.1394 10.5488 17.0151 9.95222 16.7666C9.35894 16.5147 8.89327 16.1716 8.5552 15.7374C8.21713 15.3033 8.0481 14.8111 8.0481 14.2609C8.0481 13.8366 8.14421 13.4472 8.33645 13.0926C8.532 12.7346 8.79715 12.438 9.1319 12.2026C9.46666 11.964 9.84118 11.8115 10.2555 11.7453V11.6756C9.71192 11.5663 9.27111 11.3028 8.93304 10.8852C8.59497 10.4642 8.42594 9.97536 8.42594 9.41855C8.42594 8.89156 8.58006 8.42257 8.8883 8.01159C9.19653 7.59729 9.61912 7.27248 10.1561 7.03715C10.6963 6.79852 11.3095 6.6792 11.9955 6.6792C12.6816 6.6792 13.2931 6.79852 13.8301 7.03715C14.3703 7.27579 14.7945 7.60226 15.1028 8.01656C15.411 8.42754 15.5668 8.89487 15.5701 9.41855C15.5668 9.97868 15.3945 10.4676 15.0531 10.8852C14.7117 11.3028 14.2742 11.5663 13.7406 11.6756V11.7453C14.1482 11.8115 14.5178 11.964 14.8492 12.2026C15.184 12.438 15.4491 12.7346 15.6447 13.0926C15.8436 13.4472 15.9446 13.8366 15.948 14.2609C15.9446 14.8111 15.7739 15.3033 15.4359 15.7374C15.0978 16.1716 14.6305 16.5147 14.0339 16.7666C13.4406 17.0151 12.7612 17.1394 11.9955 17.1394ZM11.9955 15.5585C12.3369 15.5585 12.6352 15.4971 12.8904 15.3745C13.1456 15.2486 13.3445 15.0762 13.487 14.8575C13.6329 14.6354 13.7058 14.3802 13.7058 14.0918C13.7058 13.7969 13.6312 13.5367 13.482 13.3113C13.3329 13.0826 13.1307 12.9036 12.8755 12.7744C12.6203 12.6418 12.327 12.5755 11.9955 12.5755C11.6674 12.5755 11.3741 12.6418 11.1156 12.7744C10.857 12.9036 10.6532 13.0826 10.5041 13.3113C10.3582 13.5367 10.2853 13.7969 10.2853 14.0918C10.2853 14.3802 10.3566 14.6354 10.4991 14.8575C10.6416 15.0762 10.8421 15.2486 11.1007 15.3745C11.3592 15.4971 11.6575 15.5585 11.9955 15.5585ZM11.9955 11.0095C12.2806 11.0095 12.5341 10.9515 12.7562 10.8354C12.9783 10.7194 13.1523 10.5587 13.2782 10.3532C13.4042 10.1477 13.4671 9.91073 13.4671 9.64227C13.4671 9.37712 13.4042 9.14511 13.2782 8.94624C13.1523 8.74407 12.9799 8.58663 12.7612 8.47394C12.5424 8.35794 12.2872 8.29994 11.9955 8.29994C11.7072 8.29994 11.452 8.35794 11.2299 8.47394C11.0079 8.58663 10.8338 8.74407 10.7079 8.94624C10.5853 9.14511 10.5239 9.37712 10.5239 9.64227C10.5239 9.91073 10.5869 10.1477 10.7129 10.3532C10.8388 10.5587 11.0128 10.7194 11.2349 10.8354C11.457 10.9515 11.7105 11.0095 11.9955 11.0095Z" fill="white"/>
</g>
<defs>
<clipPath id="clip0_3_5924">
<rect width="24" height="24" fill="white"/>
</clipPath>
</defs>
</svg>
