<svg width="24" height="24" viewBox="0 0 24 24" fill="none" xmlns="http://www.w3.org/2000/svg">
<g clip-path="url(#clip0_3_5955)">
<circle cx="12" cy="12" r="12" fill="black"/>
<path d="M12.1119 17.1394C11.5883 17.1361 11.0828 17.0483 10.5956 16.8759C10.1117 16.7036 9.67751 16.4235 9.29304 16.0357C8.90857 15.6479 8.60364 15.1342 8.37826 14.4945C8.1562 13.8549 8.04517 13.0694 8.04517 12.138C8.04848 11.2829 8.14626 10.5189 8.33849 9.8461C8.53404 9.16997 8.81245 8.59658 9.17372 8.12593C9.5383 7.65529 9.97414 7.29733 10.4812 7.05207C10.9883 6.80349 11.5568 6.6792 12.1865 6.6792C12.866 6.6792 13.4659 6.81177 13.9862 7.07693C14.5066 7.33876 14.9242 7.69506 15.2391 8.14582C15.5572 8.59658 15.7495 9.10202 15.8158 9.66215H13.6929C13.61 9.30751 13.436 9.0291 13.1709 8.82693C12.9057 8.62475 12.5776 8.52366 12.1865 8.52366C11.5236 8.52366 11.0198 8.81201 10.6751 9.38872C10.3338 9.96542 10.1597 10.7493 10.1531 11.7403H10.2227C10.3752 11.4387 10.5807 11.1818 10.8392 10.9697C11.101 10.7542 11.3977 10.5902 11.7291 10.4775C12.0639 10.3615 12.4169 10.3035 12.7881 10.3035C13.3913 10.3035 13.9282 10.446 14.3989 10.731C14.8695 11.0128 15.2407 11.4006 15.5125 11.8944C15.7843 12.3882 15.9202 12.9533 15.9202 13.5897C15.9202 14.2791 15.7594 14.8923 15.4379 15.4292C15.1197 15.9661 14.674 16.3871 14.1006 16.692C13.5305 16.9936 12.8676 17.1427 12.1119 17.1394ZM12.102 15.4491C12.4334 15.4491 12.7301 15.3695 12.9919 15.2104C13.2537 15.0514 13.4592 14.8359 13.6084 14.5641C13.7575 14.2924 13.8321 13.9874 13.8321 13.6494C13.8321 13.3113 13.7575 13.008 13.6084 12.7396C13.4625 12.4711 13.2604 12.2573 13.0018 12.0982C12.7433 11.9391 12.4483 11.8596 12.1169 11.8596C11.8683 11.8596 11.638 11.906 11.4258 11.9988C11.217 12.0916 11.0331 12.2209 10.874 12.3866C10.7182 12.5523 10.5956 12.7445 10.5061 12.9633C10.4166 13.1787 10.3719 13.4091 10.3719 13.6543C10.3719 13.9825 10.4464 14.2824 10.5956 14.5542C10.7481 14.826 10.9535 15.0431 11.2121 15.2055C11.4739 15.3679 11.7705 15.4491 12.102 15.4491Z" fill="white"/>
</g>
<defs>
<clipPath id="clip0_3_5955">
<rect width="24" height="24" fill="white"/>
</clipPath>
</defs>
</svg>
