<svg width="24" height="24" viewBox="0 0 24 24" fill="none" xmlns="http://www.w3.org/2000/svg">
<path fill-rule="evenodd" clip-rule="evenodd" d="M11.9999 1.00195C11.4741 1.00195 10.9576 1.14014 10.5021 1.40264L7.30625 3.22882C7.09612 3.27039 6.9001 3.37892 6.75251 3.54525L3.50378 5.40166L3.49992 5.40388C3.12992 5.6175 2.81082 5.90709 2.56296 6.25232C2.50263 6.31267 2.44909 6.3818 2.40433 6.45918C2.36579 6.52582 2.33579 6.59505 2.31399 6.66562C2.10826 7.07911 2.0004 7.53535 1.99992 7.99888L1.99992 11.9807C1.9997 11.9929 1.9997 12.0051 1.99992 12.0172L1.99992 16.0009C2.00046 16.527 2.13934 17.0437 2.40262 17.4992C2.66589 17.9547 3.04432 18.3329 3.49992 18.5959L3.50378 18.5981L6.753 20.4548C6.8954 20.6147 7.08835 20.7285 7.30676 20.7713L10.4999 22.5959L10.5018 22.597C10.819 22.7798 11.1658 22.9024 11.5247 22.96C11.666 23.0365 11.8279 23.0799 11.9999 23.0799C12.172 23.0799 12.3338 23.0365 12.4752 22.96C12.8341 22.9024 13.1809 22.7798 13.4981 22.597L13.4999 22.5959L16.6931 20.7713C16.9115 20.7285 17.1044 20.6147 17.2468 20.4548L20.4961 18.5981L20.4999 18.5959C20.9555 18.3329 21.334 17.9547 21.5972 17.4992C21.8605 17.0437 21.9994 16.527 21.9999 16.0009V12.0173C22.0001 12.0051 22.0001 11.9929 21.9999 11.9807V7.99888C21.9994 7.53542 21.8916 7.07926 21.6859 6.66582C21.6642 6.59518 21.6341 6.52588 21.5955 6.45918C21.5508 6.38175 21.4972 6.31257 21.4368 6.25218C21.1889 5.90701 20.8699 5.61747 20.4999 5.40387L17.2473 3.54526C17.0997 3.37892 16.9037 3.27038 16.6936 3.22882L13.4999 1.40388L13.4978 1.40267C13.0423 1.14015 12.5257 1.00195 11.9999 1.00195ZM12.9999 20.5782L15.4999 19.1496V14.5999C15.4999 14.2428 15.6904 13.9127 15.9996 13.734L19.9999 11.4228V8.53745L12.9999 12.5867V20.5782ZM10.9999 12.5867L3.99992 8.53743V11.4228L8.0002 13.734C8.30944 13.9127 8.49992 14.2428 8.49992 14.5999V19.1496L10.9999 20.5782V12.5867ZM11.9999 10.8546L18.9609 6.82794L16.4505 5.39339L12.5002 7.67577C12.1907 7.85461 11.8092 7.85461 11.4996 7.67577L7.54938 5.39339L5.03892 6.82793L11.9999 10.8546ZM17.4999 18.0067L19.4999 16.8639L19.5015 16.863C19.6527 16.7753 19.7782 16.6496 19.8657 16.4983C19.9535 16.3465 19.9997 16.1742 19.9999 15.9989V13.7326L17.4999 15.177V18.0067ZM3.99992 15.9993V13.7326L6.49992 15.177V18.0067L4.49992 16.8639L4.49835 16.863C4.34718 16.7753 4.22161 16.6496 4.13415 16.4983C4.04647 16.3466 4.00018 16.1745 3.99992 15.9993ZM14.4405 4.24486L12.4999 3.13594C12.3479 3.04817 12.1755 3.00195 11.9999 3.00195C11.8244 3.00195 11.6519 3.04816 11.4999 3.13593L11.4961 3.13815L9.55931 4.24486L11.9999 5.65499L14.4405 4.24486Z" fill="black"/>
</svg>
