<svg width="24" height="24" viewBox="0 0 24 24" fill="none" xmlns="http://www.w3.org/2000/svg">
<path d="M4.125 10.875H12.75V13.125H4.125C3.50368 13.125 3 12.6213 3 12C3 11.3787 3.50368 10.875 4.125 10.875Z" fill="black"/>
<path d="M19.875 13.125H16.5V14.25C16.5 14.8713 15.9963 15.375 15.375 15.375C14.7537 15.375 14.25 14.8713 14.25 14.25V9.75C14.25 9.12868 14.7537 8.625 15.375 8.625C15.9963 8.625 16.5 9.12868 16.5 9.75V10.875H19.875C20.4963 10.875 21 11.3787 21 12C21 12.6213 20.4963 13.125 19.875 13.125Z" fill="black"/>
<path d="M9.75 3.375C9.75 2.75368 9.24632 2.25 8.625 2.25C8.00368 2.25 7.5 2.75368 7.5 3.375V7.875C7.5 8.49632 8.00368 9 8.625 9C9.24632 9 9.75 8.49632 9.75 7.875V6.75H19.875C20.4963 6.75 21 6.24632 21 5.625C21 5.00368 20.4963 4.5 19.875 4.5H9.75V3.375Z" fill="black"/>
<path d="M8.625 15C9.24632 15 9.75 15.5037 9.75 16.125V17.25H19.875C20.4963 17.25 21 17.7537 21 18.375C21 18.9963 20.4963 19.5 19.875 19.5H9.75V20.625C9.75 21.2463 9.24632 21.75 8.625 21.75C8.00368 21.75 7.5 21.2463 7.5 20.625V16.125C7.5 15.5037 8.00368 15 8.625 15Z" fill="black"/>
<path d="M6 4.5H4.125C3.50368 4.5 3 5.00368 3 5.625C3 6.24632 3.50368 6.75 4.125 6.75H6V4.5Z" fill="black"/>
<path d="M4.125 17.25H6V19.5H4.125C3.50368 19.5 3 18.9963 3 18.375C3 17.7537 3.50368 17.25 4.125 17.25Z" fill="black"/>
</svg>
