<svg width="24" height="24" viewBox="0 0 24 24" fill="none" xmlns="http://www.w3.org/2000/svg">
<path d="M8.6 6C8.6 5.66863 8.33137 5.4 8 5.4C7.66863 5.4 7.4 5.66863 7.4 6H8.6ZM7.57574 17.9243C7.81005 18.1586 8.18995 18.1586 8.42426 17.9243L12.2426 14.1059C12.477 13.8716 12.477 13.4917 12.2426 13.2574C12.0083 13.023 11.6284 13.023 11.3941 13.2574L8 16.6515L4.60589 13.2574C4.37157 13.023 3.99167 13.023 3.75736 13.2574C3.52304 13.4917 3.52304 13.8716 3.75736 14.1059L7.57574 17.9243ZM7.4 6V17.5H8.6V6H7.4Z" fill="black"/>
<path d="M16.6 17.5C16.6 17.8314 16.3314 18.1 16 18.1C15.6686 18.1 15.4 17.8314 15.4 17.5H16.6ZM15.5757 5.57574C15.8101 5.34142 16.1899 5.34142 16.4243 5.57574L20.2426 9.39411C20.477 9.62843 20.477 10.0083 20.2426 10.2426C20.0083 10.477 19.6284 10.477 19.3941 10.2426L16 6.84853L12.6059 10.2426C12.3716 10.477 11.9917 10.477 11.7574 10.2426C11.523 10.0083 11.523 9.62843 11.7574 9.39411L15.5757 5.57574ZM15.4 17.5V6H16.6V17.5H15.4Z" fill="black"/>
</svg>
