<svg width="24" height="24" viewBox="0 0 24 24" fill="none" xmlns="http://www.w3.org/2000/svg">
<path fill-rule="evenodd" clip-rule="evenodd" d="M5.63728 5.63718C6.02774 5.24659 6.02764 4.61343 5.63706 4.22296C5.24648 3.8325 4.61331 3.83259 4.22285 4.22318C2.16067 6.28598 1.0022 9.08337 1.0022 12.0002C1.0022 14.917 2.16067 17.7144 4.22285 19.7772C4.61331 20.1678 5.24648 20.1679 5.63706 19.7774C6.02764 19.3869 6.02774 18.7538 5.63728 18.3632C3.95004 16.6754 3.0022 14.3867 3.0022 12.0002C3.0022 9.6137 3.95004 7.32492 5.63728 5.63718ZM19.7773 4.22318C19.3868 3.83259 18.7536 3.8325 18.3631 4.22296C17.9725 4.61343 17.9724 5.24659 18.3628 5.63718C20.0501 7.32492 20.9979 9.6137 20.9979 12.0002C20.9979 14.3867 20.0501 16.6754 18.3628 18.3632C17.9724 18.7538 17.9725 19.3869 18.3631 19.7774C18.7536 20.1679 19.3868 20.1678 19.7773 19.7772C21.8395 17.7144 22.9979 14.917 22.9979 12.0002C22.9979 9.08337 21.8395 6.28598 19.7773 4.22318ZM8.46678 8.45768C8.85752 8.06737 8.85787 7.4342 8.46756 7.04346C8.07726 6.65272 7.44409 6.65237 7.05335 7.04268C6.40251 7.69279 5.8862 8.46481 5.53393 9.31459C5.18166 10.1644 5.00034 11.0753 5.00034 11.9952C5.00034 12.9151 5.18166 13.826 5.53393 14.6758C5.8862 15.5255 6.40251 16.2976 7.05335 16.9477C7.44409 17.338 8.07726 17.3376 8.46756 16.9469C8.85787 16.5561 8.85752 15.923 8.46678 15.5327C8.00189 15.0683 7.6331 14.5169 7.38148 13.9099C7.12986 13.3029 7.00034 12.6523 7.00034 11.9952C7.00034 11.3381 7.12986 10.6875 7.38148 10.0805C7.6331 9.47348 8.00189 8.92204 8.46678 8.45768ZM16.9468 7.05268C16.556 6.66237 15.9229 6.66272 15.5326 7.05346C15.1423 7.4442 15.1426 8.07737 15.5333 8.46768C15.9982 8.93204 16.367 9.48348 16.6186 10.0905C16.8703 10.6975 16.9998 11.3481 16.9998 12.0052C16.9998 12.6623 16.8703 13.3129 16.6186 13.9199C16.367 14.5269 15.9982 15.0783 15.5333 15.5427C15.1426 15.933 15.1423 16.5661 15.5326 16.9569C15.9229 17.3476 16.556 17.348 16.9468 16.9577C17.5976 16.3076 18.1139 15.5355 18.4662 14.6858C18.8185 13.836 18.9998 12.9251 18.9998 12.0052C18.9998 11.0853 18.8185 10.1744 18.4662 9.32459C18.1139 8.47481 17.5976 7.70279 16.9468 7.05268ZM11 12.0002C11 11.4479 11.4477 11.0002 12 11.0002C12.5523 11.0002 13 11.4479 13 12.0002C13 12.5525 12.5523 13.0002 12 13.0002C11.4477 13.0002 11 12.5525 11 12.0002ZM12 9.00018C10.3431 9.00018 9 10.3433 9 12.0002C9 13.657 10.3431 15.0002 12 15.0002C13.6569 15.0002 15 13.657 15 12.0002C15 10.3433 13.6569 9.00018 12 9.00018Z" fill="black"/>
</svg>
