<svg width="24" height="24" viewBox="0 0 24 24" fill="none" xmlns="http://www.w3.org/2000/svg">
<g clip-path="url(#clip0_3_6194)">
<circle cx="12" cy="12" r="12" fill="black"/>
<path d="M8.41608 17.0002V15.4491L12.0404 12.0933C12.3486 11.795 12.6071 11.5265 12.8159 11.2879C13.0281 11.0492 13.1888 10.8156 13.2982 10.5869C13.4076 10.3549 13.4622 10.1046 13.4622 9.83616C13.4622 9.53786 13.3943 9.281 13.2584 9.06556C13.1225 8.84681 12.9369 8.67944 12.7016 8.56343C12.4663 8.44411 12.1995 8.38446 11.9012 8.38446C11.5896 8.38446 11.3178 8.44743 11.0858 8.57338C10.8538 8.69932 10.6748 8.87996 10.5489 9.11528C10.4229 9.3506 10.36 9.63067 10.36 9.95548H8.31665C8.31665 9.28928 8.46746 8.71092 8.76907 8.22039C9.07068 7.72986 9.49326 7.35036 10.0368 7.0819C10.5804 6.81343 11.2068 6.6792 11.9161 6.6792C12.6452 6.6792 13.28 6.80846 13.8202 7.06698C14.3638 7.32219 14.7863 7.67683 15.088 8.1309C15.3896 8.58498 15.5404 9.10534 15.5404 9.69198C15.5404 10.0765 15.4641 10.456 15.3117 10.8305C15.1625 11.205 14.8957 11.621 14.5113 12.0783C14.1268 12.5324 13.5849 13.0776 12.8855 13.714L11.399 15.1707V15.2403H15.6746V17.0002H8.41608Z" fill="white"/>
</g>
<defs>
<clipPath id="clip0_3_6194">
<rect width="24" height="24" fill="white"/>
</clipPath>
</defs>
</svg>
