<svg width="24" height="24" viewBox="0 0 24 24" fill="none" xmlns="http://www.w3.org/2000/svg">
<g clip-path="url(#clip0_3_6155)">
<circle cx="12" cy="12" r="12" fill="black"/>
<path d="M11.9745 17.1394C11.2321 17.1394 10.5709 17.0118 9.99083 16.7566C9.41413 16.4981 8.9584 16.1435 8.62365 15.6927C8.29221 15.2386 8.12152 14.7149 8.11157 14.1217H10.2792C10.2924 14.3703 10.3736 14.589 10.5228 14.7779C10.6753 14.9635 10.8774 15.1077 11.1293 15.2104C11.3812 15.3132 11.6646 15.3646 11.9795 15.3646C12.3076 15.3646 12.5976 15.3066 12.8495 15.1906C13.1014 15.0746 13.2986 14.9138 13.4411 14.7083C13.5836 14.5028 13.6549 14.2658 13.6549 13.9974C13.6549 13.7256 13.5787 13.4853 13.4262 13.2765C13.2771 13.0644 13.0616 12.8987 12.7799 12.7793C12.5015 12.66 12.17 12.6004 11.7856 12.6004H10.836V11.0194H11.7856C12.1104 11.0194 12.3971 10.9631 12.6457 10.8504C12.8976 10.7377 13.0931 10.5819 13.2323 10.383C13.3715 10.1809 13.4411 9.94553 13.4411 9.67707C13.4411 9.42186 13.3798 9.19814 13.2572 9.0059C13.1379 8.81035 12.9688 8.65789 12.7501 8.54852C12.5346 8.43914 12.2827 8.38446 11.9944 8.38446C11.7027 8.38446 11.4359 8.43749 11.194 8.54355C10.952 8.64629 10.7581 8.79378 10.6123 8.98602C10.4664 9.17825 10.3886 9.40363 10.3786 9.66215H8.31541C8.32535 9.07551 8.49273 8.55846 8.81754 8.11102C9.14235 7.66357 9.57985 7.31391 10.13 7.06201C10.6835 6.8068 11.3083 6.6792 12.0043 6.6792C12.707 6.6792 13.3218 6.8068 13.8488 7.06201C14.3758 7.31722 14.7851 7.66192 15.0768 8.0961C15.3718 8.52697 15.5176 9.01088 15.5143 9.54781C15.5176 10.1179 15.3403 10.5935 14.9823 10.9747C14.6277 11.3558 14.1653 11.5978 13.5952 11.7005V11.7801C14.3443 11.8762 14.9144 12.1363 15.3055 12.5606C15.6999 12.9815 15.8954 13.5085 15.8921 14.1416C15.8954 14.7216 15.7281 15.237 15.39 15.6877C15.0552 16.1385 14.5929 16.4931 14.0029 16.7516C13.4129 17.0102 12.7368 17.1394 11.9745 17.1394Z" fill="white"/>
</g>
<defs>
<clipPath id="clip0_3_6155">
<rect width="24" height="24" fill="white"/>
</clipPath>
</defs>
</svg>
