<svg width="24" height="24" viewBox="0 0 24 24" fill="none" xmlns="http://www.w3.org/2000/svg">
<g clip-path="url(#clip0_3_6072)">
<path d="M8.08241 1.04679C9.50129 0.90231 10.9342 1.0971 12.263 1.61511C13.5918 2.13313 14.7785 2.95952 15.7252 4.02619C16.498 4.89686 17.0929 5.90727 17.4793 7.0002H18.0012C19.3784 7.00182 20.7131 7.47715 21.7813 8.3464C22.8494 9.21566 23.5861 10.4259 23.8675 11.774C24.149 13.1221 23.9581 14.526 23.3269 15.7501C22.6957 16.9741 21.6627 17.9437 20.4012 18.4962C19.8953 18.7178 19.3056 18.4873 19.084 17.9814C18.8625 17.4755 19.093 16.8858 19.5989 16.6642C20.4399 16.2959 21.1285 15.6494 21.5493 14.8334C21.9701 14.0174 22.0974 13.0815 21.9097 12.1827C21.7221 11.284 21.231 10.4772 20.5189 9.89767C19.8069 9.31825 18.9172 9.00137 17.9992 9.0002H16.74C16.284 9.0002 15.8858 8.69174 15.7718 8.25024C15.4944 7.17619 14.9658 6.18344 14.2294 5.35381C13.4931 4.52418 12.5701 3.88143 11.5366 3.47853C10.5031 3.07563 9.38859 2.92413 8.28502 3.0365C7.18145 3.14887 6.12038 3.52191 5.18928 4.12486C4.25818 4.72781 3.4837 5.54341 2.92969 6.50443C2.37567 7.46546 2.05799 8.54439 2.00281 9.65229C1.94763 10.7602 2.15654 11.8654 2.61233 12.8767C3.06811 13.888 3.75771 14.7765 4.6243 15.469C5.05575 15.8138 5.12602 16.443 4.78125 16.8745C4.43648 17.3059 3.80722 17.3762 3.37577 17.0314C2.26159 16.1411 1.37496 14.9987 0.78895 13.6984C0.202942 12.3982 -0.0656603 10.9773 0.00528293 9.55281C0.0762262 8.12836 0.484683 6.74116 1.19699 5.50556C1.90929 4.26996 2.90505 3.22133 4.10218 2.44611C5.29931 1.67089 6.66353 1.19127 8.08241 1.04679Z" fill="black"/>
<path d="M7 16.0002C7 15.4479 7.44772 15.0002 8 15.0002H8.01C8.56229 15.0002 9.01 15.4479 9.01 16.0002C9.01 16.5525 8.56229 17.0002 8.01 17.0002H8C7.44772 17.0002 7 16.5525 7 16.0002Z" fill="black"/>
<path d="M8 19.0002C7.44772 19.0002 7 19.4479 7 20.0002C7 20.5525 7.44772 21.0002 8 21.0002H8.01C8.56229 21.0002 9.01 20.5525 9.01 20.0002C9.01 19.4479 8.56229 19.0002 8.01 19.0002H8Z" fill="black"/>
<path d="M11 18.0002C11 17.4479 11.4477 17.0002 12 17.0002H12.01C12.5623 17.0002 13.01 17.4479 13.01 18.0002C13.01 18.5525 12.5623 19.0002 12.01 19.0002H12C11.4477 19.0002 11 18.5525 11 18.0002Z" fill="black"/>
<path d="M12 21.0002C11.4477 21.0002 11 21.4479 11 22.0002C11 22.5525 11.4477 23.0002 12 23.0002H12.01C12.5623 23.0002 13.01 22.5525 13.01 22.0002C13.01 21.4479 12.5623 21.0002 12.01 21.0002H12Z" fill="black"/>
<path d="M15 16.0002C15 15.4479 15.4477 15.0002 16 15.0002H16.01C16.5623 15.0002 17.01 15.4479 17.01 16.0002C17.01 16.5525 16.5623 17.0002 16.01 17.0002H16C15.4477 17.0002 15 16.5525 15 16.0002Z" fill="black"/>
<path d="M16 19.0002C15.4477 19.0002 15 19.4479 15 20.0002C15 20.5525 15.4477 21.0002 16 21.0002H16.01C16.5623 21.0002 17.01 20.5525 17.01 20.0002C17.01 19.4479 16.5623 19.0002 16.01 19.0002H16Z" fill="black"/>
</g>
<defs>
<clipPath id="clip0_3_6072">
<rect width="24" height="24" fill="white"/>
</clipPath>
</defs>
</svg>
