<svg width="24" height="24" viewBox="0 0 24 24" fill="none" xmlns="http://www.w3.org/2000/svg">
<g clip-path="url(#clip0_3_6000)">
<circle cx="12" cy="12" r="12" fill="black"/>
<path d="M12.0323 17.1394C11.3297 17.1394 10.7033 17.0101 10.1531 16.7516C9.6062 16.4931 9.17202 16.1368 8.85052 15.6827C8.52902 15.2286 8.36165 14.7083 8.34839 14.1216H10.4365C10.4597 14.516 10.6254 14.8359 10.9336 15.0811C11.2419 15.3264 11.6081 15.449 12.0323 15.449C12.3704 15.449 12.6687 15.3745 12.9272 15.2253C13.1891 15.0729 13.3929 14.8624 13.5387 14.5939C13.6879 14.3221 13.7625 14.0106 13.7625 13.6593C13.7625 13.3013 13.6862 12.9864 13.5338 12.7147C13.3846 12.4429 13.1775 12.2308 12.9123 12.0783C12.6472 11.9258 12.3439 11.848 12.0025 11.8446C11.7042 11.8446 11.4142 11.906 11.1325 12.0286C10.8541 12.1512 10.637 12.3186 10.4812 12.5307L8.56714 12.1877L9.04938 6.81836H15.2738V8.5783H10.8242L10.5607 11.1287H10.6204C10.7994 10.8768 11.0695 10.668 11.4308 10.5023C11.792 10.3366 12.1964 10.2537 12.6438 10.2537C13.257 10.2537 13.8039 10.3979 14.2845 10.6863C14.7651 10.9746 15.1446 11.3707 15.423 11.8745C15.7014 12.3749 15.8389 12.9516 15.8356 13.6046C15.8389 14.2907 15.6798 14.9005 15.3583 15.4341C15.0402 15.9644 14.5944 16.382 14.021 16.687C13.4509 16.9886 12.788 17.1394 12.0323 17.1394Z" fill="white"/>
</g>
<defs>
<clipPath id="clip0_3_6000">
<rect width="24" height="24" fill="white"/>
</clipPath>
</defs>
</svg>
