<svg width="24" height="24" viewBox="0 0 24 24" fill="none" xmlns="http://www.w3.org/2000/svg">
<g clip-path="url(#clip0_3_6074)">
<path d="M12.263 0.615115C10.9342 0.0971033 9.50129 -0.0976905 8.08241 0.0467898C6.66353 0.19127 5.29931 0.670887 4.10218 1.44611C2.90505 2.22133 1.90929 3.26996 1.19699 4.50556C0.484683 5.74116 0.0762262 7.12836 0.00528293 8.55281C-0.0656603 9.97726 0.202942 11.3982 0.78895 12.6984C1.37496 13.9987 2.26159 15.1411 3.37577 16.0314C3.80722 16.3762 4.43648 16.3059 4.78125 15.8745C5.12602 15.443 5.05575 14.8138 4.6243 14.469C3.75771 13.7765 3.06811 12.888 2.61233 11.8767C2.15654 10.8654 1.94763 9.7602 2.00281 8.65229C2.05799 7.54439 2.37567 6.46546 2.92969 5.50443C3.4837 4.54341 4.25818 3.72781 5.18928 3.12486C6.12038 2.52191 7.18145 2.14887 8.28502 2.0365C9.38859 1.92413 10.5031 2.07563 11.5366 2.47853C12.5701 2.88143 13.4931 3.52418 14.2294 4.35381C14.9658 5.18344 15.4944 6.17619 15.7718 7.25024C15.8858 7.69174 16.284 8.0002 16.74 8.0002H17.9992C18.9172 8.00137 19.8069 8.31825 20.5189 8.89767C21.231 9.47717 21.7221 10.284 21.9097 11.1827C22.0974 12.0815 21.9701 13.0174 21.5493 13.8334C21.1285 14.6494 20.4399 15.2959 19.5989 15.6642C19.093 15.8858 18.8625 16.4755 19.084 16.9814C19.3056 17.4873 19.8953 17.7178 20.4012 17.4962C21.6627 16.9437 22.6957 15.9741 23.3269 14.7501C23.9581 13.526 24.149 12.1221 23.8675 10.774C23.5861 9.42591 22.8494 8.21566 21.7813 7.3464C20.7131 6.47715 19.3784 6.00182 18.0012 6.0002H17.4793C17.0929 4.90727 16.498 3.89686 15.7252 3.02619C14.7785 1.95952 13.5918 1.13313 12.263 0.615115Z" fill="black"/>
<path d="M9 13.0002C9 12.4479 8.55229 12.0002 8 12.0002C7.44772 12.0002 7 12.4479 7 13.0002V21.0002C7 21.5525 7.44772 22.0002 8 22.0002C8.55229 22.0002 9 21.5525 9 21.0002V13.0002Z" fill="black"/>
<path d="M17 13.0002C17 12.4479 16.5523 12.0002 16 12.0002C15.4477 12.0002 15 12.4479 15 13.0002V21.0002C15 21.5525 15.4477 22.0002 16 22.0002C16.5523 22.0002 17 21.5525 17 21.0002V13.0002Z" fill="black"/>
<path d="M12 14.0002C12.5523 14.0002 13 14.4479 13 15.0002V23.0002C13 23.5525 12.5523 24.0002 12 24.0002C11.4477 24.0002 11 23.5525 11 23.0002V15.0002C11 14.4479 11.4477 14.0002 12 14.0002Z" fill="black"/>
</g>
<defs>
<clipPath id="clip0_3_6074">
<rect width="24" height="24" fill="white"/>
</clipPath>
</defs>
</svg>
