<svg width="24" height="24" viewBox="0 0 24 24" fill="none" xmlns="http://www.w3.org/2000/svg">
<path fill-rule="evenodd" clip-rule="evenodd" d="M15.78 2.3877C14.9838 2.3877 14.2202 2.704 13.6572 3.26703L4.46715 12.457C3.52884 13.3953 3.00171 14.668 3.00171 15.9949C3.00171 17.3219 3.52884 18.5945 4.46715 19.5328C5.40546 20.4711 6.67808 20.9983 8.00505 20.9983C9.33201 20.9983 10.6046 20.4711 11.5429 19.5328L20.7329 10.3428C21.1235 9.95229 21.7566 9.95229 22.1472 10.3428C22.5377 10.7333 22.5377 11.3665 22.1472 11.757L12.9572 20.947C11.6438 22.2604 9.86245 22.9983 8.00505 22.9983C6.14765 22.9983 4.36632 22.2604 3.05294 20.947C1.73956 19.6336 1.00171 17.8523 1.00171 15.9949C1.00171 14.1375 1.73956 12.3562 3.05294 11.0428L12.2429 1.85281C13.181 0.914714 14.4534 0.387695 15.78 0.387695C17.1067 0.387695 18.3791 0.914714 19.3172 1.85281C20.2553 2.79091 20.7823 4.06325 20.7823 5.38992C20.7823 6.71659 20.2553 7.98893 19.3172 8.92703L10.1172 18.117C9.55434 18.6798 8.79099 18.996 7.99505 18.996C7.1991 18.996 6.43576 18.6798 5.87294 18.117C5.31012 17.5542 4.99393 16.7909 4.99393 15.9949C4.99393 15.199 5.31012 14.4356 5.87294 13.8728L14.3634 5.3924C14.7541 5.0021 15.3873 5.00247 15.7776 5.39323C16.1679 5.78398 16.1675 6.41715 15.7767 6.80744L7.28715 15.287C7.09967 15.4747 6.99393 15.7296 6.99393 15.9949C6.99393 16.2604 7.09941 16.5151 7.28715 16.7028C7.4749 16.8906 7.72954 16.996 7.99505 16.996C8.26056 16.996 8.51519 16.8906 8.70294 16.7028L17.9029 7.51281C18.4657 6.94982 18.7823 6.18598 18.7823 5.38992C18.7823 4.59368 18.466 3.83005 17.9029 3.26703C17.3399 2.704 16.5763 2.3877 15.78 2.3877Z" fill="black"/>
</svg>
