<svg width="24" height="24" viewBox="0 0 24 24" fill="none" xmlns="http://www.w3.org/2000/svg">
<path d="M2.08118 9.74996C4.82096 7.33493 8.34771 6.00244 11.9999 6.00244C15.6522 6.00244 19.1789 7.33493 21.9187 9.74996C22.333 10.1152 22.9649 10.0753 23.3301 9.66104C23.6953 9.24674 23.6555 8.61482 23.2412 8.24963C20.1361 5.51259 16.1391 4.00244 11.9999 4.00244C7.86075 4.00244 3.86376 5.51259 0.758684 8.24963C0.344379 8.61482 0.30457 9.24674 0.669769 9.66104C1.03497 10.0753 1.66688 10.1152 2.08118 9.74996Z" fill="black"/>
<path d="M5.64001 13.3182C7.43689 11.8215 9.70147 11.002 12.04 11.002C14.3786 11.002 16.6431 11.8215 18.44 13.3182C18.8644 13.6717 19.4949 13.6142 19.8484 13.1898C20.2019 12.7655 20.1444 12.1349 19.72 11.7815C17.5638 9.98546 14.8463 9.00195 12.04 9.00195C9.23376 9.00195 6.51626 9.98546 4.36001 11.7815C3.93565 12.1349 3.87818 12.7655 4.23164 13.1898C4.5851 13.6142 5.21565 13.6717 5.64001 13.3182Z" fill="black"/>
<path d="M12.005 16.0011C10.9673 16.0011 9.95521 16.324 9.10921 16.9251C8.65898 17.2449 8.0347 17.1392 7.71483 16.689C7.39497 16.2388 7.50065 15.6145 7.95088 15.2946C9.13528 14.4532 10.5522 14.0011 12.005 14.0011C13.4579 14.0011 14.8748 14.4532 16.0592 15.2946C16.5094 15.6145 16.6151 16.2388 16.2953 16.689C15.9754 17.1392 15.3511 17.2449 14.9009 16.9251C14.0549 16.324 13.0428 16.0011 12.005 16.0011Z" fill="black"/>
<path d="M12 18.9998C11.4477 18.9998 11 19.4475 11 19.9998C11 20.5521 11.4477 20.9998 12 20.9998H12.01C12.5623 20.9998 13.01 20.5521 13.01 19.9998C13.01 19.4475 12.5623 18.9998 12.01 18.9998H12Z" fill="black"/>
</svg>
