<svg width="24" height="24" viewBox="0 0 24 24" fill="none" xmlns="http://www.w3.org/2000/svg">
<path fill-rule="evenodd" clip-rule="evenodd" d="M10.5133 5.36261C8.69389 3.54319 5.74403 3.54319 3.92462 5.36261C2.1052 7.18202 2.10521 10.1319 3.92462 11.9513L4.70433 12.731C4.71707 12.7437 4.72944 12.7568 4.74142 12.7701L12.0001 20.0289L19.2585 12.7705C19.2706 12.7571 19.283 12.7439 19.2959 12.731L20.0756 11.9513C21.895 10.1319 21.895 7.18202 20.0756 5.36261C18.2562 3.54319 15.3063 3.54319 13.4869 5.36261L12.7072 6.14232C12.3167 6.53284 11.6835 6.53284 11.293 6.14232L10.5133 5.36261ZM20.7486 14.1068C20.7365 14.1202 20.724 14.1333 20.7112 14.1462L12.7083 22.1491C12.5207 22.3367 12.2662 22.4421 12.0009 22.442C12.0007 22.442 12.0012 22.442 12.0009 22.442C12.0007 22.442 11.9996 22.442 11.9993 22.442C11.734 22.4421 11.4796 22.3367 11.292 22.1491L3.28909 14.1462C3.27619 14.1333 3.26372 14.1202 3.25167 14.1068L2.51041 13.3655C-0.0900556 10.765 -0.0900594 6.54886 2.51041 3.9484C5.11087 1.34793 9.32705 1.34793 11.9275 3.9484L12.0001 4.021L12.0727 3.9484C14.6732 1.34793 18.8894 1.34793 21.4898 3.9484C24.0903 6.54886 24.0903 10.765 21.4898 13.3655L20.7486 14.1068Z" fill="black"/>
</svg>
