<svg width="24" height="24" viewBox="0 0 24 24" fill="none" xmlns="http://www.w3.org/2000/svg">
<path fill-rule="evenodd" clip-rule="evenodd" d="M10.5021 1.40264C10.9577 1.14014 11.4742 1.00195 12 1.00195C12.5258 1.00195 13.0424 1.14015 13.4979 1.40267L13.5 1.40388L20.5 5.40387C20.87 5.61748 21.1891 5.90704 21.4369 6.25224C21.4973 6.31262 21.5508 6.38178 21.5956 6.45919C21.6342 6.52588 21.6642 6.59517 21.686 6.66579C21.8917 7.07924 21.9995 7.53541 22 7.99888V16.0009C21.9995 16.527 21.8606 17.0437 21.5973 17.4992C21.334 17.9547 20.9556 18.3329 20.5 18.5959L20.4961 18.5981L13.5 22.5959L13.4982 22.597C13.181 22.7798 12.8342 22.9024 12.4753 22.96C12.3339 23.0365 12.172 23.0799 12 23.0799C11.828 23.0799 11.6661 23.0365 11.5247 22.96C11.1658 22.9024 10.8191 22.7798 10.5019 22.597L10.5 22.5959L3.50386 18.5981L3.5 18.5959C3.04439 18.3329 2.66597 17.9547 2.40269 17.4992C2.13941 17.0437 2.00054 16.527 2 16.0009V7.99888C2.00048 7.53534 2.10835 7.07909 2.31408 6.66559C2.33587 6.59504 2.36587 6.52582 2.40441 6.45919C2.44916 6.38183 2.50268 6.31272 2.563 6.25237C2.81087 5.90712 3.12998 5.61751 3.5 5.40388L3.50386 5.40165L10.5021 1.40264ZM13 20.5782L19.5 16.8639L19.5016 16.863C19.6527 16.7753 19.7783 16.6496 19.8658 16.4983C19.9535 16.3465 19.9998 16.1742 20 15.9989V8.53746L13 12.5867V20.5782ZM11 12.5867V20.5782L4.5 16.8639L4.49842 16.863C4.34726 16.7753 4.22169 16.6496 4.13423 16.4983C4.04654 16.3466 4.00026 16.1745 4 15.9993V8.53744L11 12.5867ZM12.5039 3.13815L18.961 6.82795L12 10.8547L5.03898 6.82794L11.4961 3.13815L11.5 3.13593C11.652 3.04816 11.8245 3.00195 12 3.00195C12.1755 3.00195 12.348 3.04816 12.5 3.13593L12.5039 3.13815Z" fill="black"/>
</svg>
