<svg width="24" height="24" viewBox="0 0 24 24" fill="none" xmlns="http://www.w3.org/2000/svg">
<path fill-rule="evenodd" clip-rule="evenodd" d="M19 1.17139C18.4973 1.17139 17.9994 1.27041 17.5349 1.46281C17.0705 1.6552 16.6484 1.9372 16.2929 2.29271L2.79292 15.7927C2.66986 15.9158 2.58105 16.0688 2.53526 16.2367L1.03526 21.7367C0.940838 22.0829 1.03917 22.4532 1.29292 22.7069C1.54667 22.9607 1.91693 23.059 2.26314 22.9646L7.76314 21.4646C7.93104 21.4188 8.08407 21.33 8.20713 21.2069L21.7071 7.70692C22.0626 7.35142 22.3446 6.92938 22.537 6.46489C22.7294 6.0004 22.8284 5.50257 22.8284 4.99981C22.8284 4.49706 22.7294 3.99923 22.537 3.53474C22.3446 3.07025 22.0626 2.64821 21.7071 2.29271C21.3516 1.9372 20.9296 1.6552 20.4651 1.46281C20.0006 1.27041 19.5028 1.17139 19 1.17139ZM18.3003 3.31057C18.5222 3.21868 18.7599 3.17139 19 3.17139C19.2401 3.17139 19.4779 3.21868 19.6997 3.31057C19.9216 3.40245 20.1231 3.53714 20.2929 3.70692C20.4627 3.87671 20.5974 4.07827 20.6893 4.30011C20.7812 4.52194 20.8284 4.7597 20.8284 4.99981C20.8284 5.23993 20.7812 5.47769 20.6893 5.69952C20.5974 5.92136 20.4627 6.12292 20.2929 6.29271L6.9807 19.6049L3.42524 20.5746L4.39491 17.0191L17.7071 3.70692C17.8769 3.53714 18.0785 3.40245 18.3003 3.31057Z" fill="black"/>
</svg>
