<svg width="24" height="24" viewBox="0 0 24 24" fill="none" xmlns="http://www.w3.org/2000/svg">
<g clip-path="url(#clip0_3_6073)">
<circle cx="12" cy="12" r="12" fill="black"/>
<path d="M11.888 6.67876C12.4117 6.67876 12.9155 6.7666 13.3994 6.94226C13.8866 7.11792 14.3208 7.39799 14.702 7.78246C15.0864 8.16693 15.3897 8.67734 15.6118 9.31371C15.8371 9.94676 15.9515 10.724 15.9548 11.6454C15.9548 12.5104 15.857 13.2827 15.6615 13.9621C15.4692 14.6383 15.1925 15.2133 14.8312 15.6873C14.4699 16.1612 14.0341 16.5225 13.5237 16.7711C13.0133 17.0164 12.4432 17.139 11.8135 17.139C11.134 17.139 10.5341 17.0081 10.0137 16.7462C9.49339 16.4811 9.07411 16.1215 8.75593 15.6674C8.44107 15.21 8.25049 14.6963 8.1842 14.1262H10.3071C10.3899 14.4974 10.5639 14.7858 10.8291 14.9913C11.0942 15.1934 11.4224 15.2945 11.8135 15.2945C12.4763 15.2945 12.9801 15.0062 13.3248 14.4295C13.6695 13.8495 13.8435 13.0557 13.8468 12.0481H13.7772C13.6248 12.3464 13.4193 12.6032 13.1608 12.8187C12.9022 13.0308 12.6056 13.1949 12.2708 13.3109C11.9394 13.4269 11.5864 13.4849 11.2119 13.4849C10.612 13.4849 10.0767 13.344 9.60608 13.0623C9.13543 12.7806 8.76422 12.3928 8.49244 11.8989C8.22066 11.4051 8.08477 10.8416 8.08477 10.2086C8.08145 9.52583 8.23889 8.91764 8.55707 8.38402C8.87525 7.8504 9.31938 7.43279 9.88946 7.13118C10.4628 6.82625 11.129 6.67545 11.888 6.67876ZM11.903 8.3691C11.5682 8.3691 11.2699 8.44865 11.0081 8.60774C10.7495 8.76683 10.544 8.98061 10.3916 9.24908C10.2424 9.51754 10.1695 9.8175 10.1728 10.1489C10.1728 10.4837 10.2458 10.7853 10.3916 11.0538C10.5407 11.3189 10.7429 11.531 10.9981 11.6901C11.2566 11.8459 11.5516 11.9238 11.8831 11.9238C12.1316 11.9238 12.362 11.8774 12.5741 11.7846C12.7862 11.6918 12.9702 11.5642 13.126 11.4018C13.2851 11.2361 13.4093 11.0455 13.4988 10.83C13.5883 10.6146 13.6331 10.3859 13.6331 10.144C13.6297 9.82247 13.5535 9.52749 13.4044 9.25902C13.2552 8.99055 13.0497 8.77512 12.7879 8.61271C12.5261 8.45031 12.2311 8.3691 11.903 8.3691Z" fill="white"/>
</g>
<defs>
<clipPath id="clip0_3_6073">
<rect width="24" height="24" fill="white"/>
</clipPath>
</defs>
</svg>
