<svg width="24" height="24" viewBox="0 0 24 24" fill="none" xmlns="http://www.w3.org/2000/svg">
<g clip-path="url(#clip0_3_5964)">
<path fill-rule="evenodd" clip-rule="evenodd" d="M17.8099 2.15363C16.7208 1.88114 15.5744 1.94969 14.5256 2.34999C13.4768 2.7503 12.5762 3.46306 11.9457 4.39186C11.3221 5.31046 10.9924 6.39655 10.9998 7.50622C9.7425 7.41172 8.51256 7.07171 7.38071 6.50202C5.95775 5.78579 4.734 4.72877 3.81846 3.42509L3.0001 3.9998L2.10568 3.55259C2.09773 3.56849 2.09023 3.58453 2.08319 3.60071L2.08023 3.60747L2.06866 3.63439C2.0592 3.65665 2.04631 3.68745 2.03054 3.72638C1.99901 3.80421 1.95587 3.91469 1.90538 4.05433C1.80452 4.3333 1.67368 4.73058 1.54758 5.21817C1.29658 6.1887 1.05781 7.54209 1.12613 9.04521C1.19466 10.5527 1.57353 12.2314 2.57716 13.8161C3.32952 15.004 4.41169 16.1052 5.91484 17.0328C4.39647 17.7323 2.72666 18.0677 1.03985 18.0006C0.577127 17.9822 0.162301 18.2839 0.0372519 18.7298C-0.0877967 19.1757 0.109649 19.6491 0.51446 19.874C5.29097 22.5276 10.651 22.5523 14.845 20.32C19.0632 18.0748 22.0001 13.5997 22.0001 7.4998L22.0001 7.4965C21.9996 7.33424 21.9918 7.17217 21.977 7.01077C22.9426 5.93937 23.6292 4.64295 23.9717 3.23642L23.0001 2.9998L22.4237 2.18264C21.7152 2.68238 20.9449 3.08639 20.1327 3.38491C19.4724 2.79436 18.6759 2.37032 17.8099 2.15363ZM3.12407 8.95439C3.07437 7.86104 3.22106 6.84478 3.40475 6.04341C4.29735 6.95228 5.33595 7.71188 6.48152 8.28848C8.19909 9.15299 10.1038 9.57931 12.026 9.52946C12.568 9.51541 13.0001 9.07199 13.0001 8.5298V7.5298L13 7.5164C12.9905 6.80357 13.2001 6.105 13.6005 5.51518C14.0009 4.92535 14.5727 4.47273 15.2388 4.21852C15.9048 3.96431 16.6328 3.92078 17.3244 4.09382C18.016 4.26686 18.6377 4.64812 19.1055 5.18604C19.3637 5.48283 19.7718 5.60074 20.1484 5.48733C20.3801 5.41758 20.6093 5.34086 20.8358 5.2573C20.647 5.50396 20.4407 5.73811 20.2179 5.9578C19.9803 6.19218 19.8752 6.52969 19.9379 6.85755C19.9785 7.06981 19.9993 7.28537 20.0001 7.50147C19.9996 12.9006 17.4366 16.675 13.9053 18.5546C11.3071 19.9374 8.13037 20.3232 4.9602 19.5155C6.2343 19.1486 7.4508 18.5813 8.56173 17.8272C8.86216 17.6233 9.02844 17.2725 8.99614 16.9109C8.96384 16.5492 8.73804 16.2335 8.40624 16.086C6.31614 15.1571 5.04039 13.9675 4.2668 12.746C3.48918 11.5182 3.18055 10.1969 3.12407 8.95439Z" fill="black"/>
</g>
<defs>
<clipPath id="clip0_3_5964">
<rect width="24" height="24" fill="white"/>
</clipPath>
</defs>
</svg>
